<svg width="34" height="33" viewBox="0 0 34 33" fill="none" xmlns="http://www.w3.org/2000/svg">
<path d="M17 8.02902C15.4315 8.02902 13.9643 8.42188 12.5982 9.20759C11.2827 9.9442 10.2202 10.9754 9.41071 12.3013C8.65179 13.5781 8.27232 14.9777 8.27232 16.5C8.27232 18.0223 8.65179 19.4464 9.41071 20.7723C10.2202 22.0491 11.2827 23.0804 12.5982 23.8661C13.9643 24.6027 15.4315 24.971 17 24.971C18.5685 24.971 20.0104 24.6027 21.3259 23.8661C22.692 23.0804 23.7545 22.0491 24.5134 20.7723C25.3229 19.4464 25.7277 18.0223 25.7277 16.5C25.7277 14.9777 25.3229 13.5781 24.5134 12.3013C23.7545 10.9754 22.692 9.9442 21.3259 9.20759C20.0104 8.42188 18.5685 8.02902 17 8.02902ZM17 22.0246C15.4315 22.0246 14.0908 21.4844 12.9777 20.404C11.8646 19.3237 11.308 18.0223 11.308 16.5C11.308 14.9777 11.8646 13.6763 12.9777 12.596C14.0908 11.5156 15.4315 10.9754 17 10.9754C18.5685 10.9754 19.9092 11.5156 21.0223 12.596C22.1354 13.6763 22.692 14.9777 22.692 16.5C22.692 18.0223 22.1354 19.3237 21.0223 20.404C19.9092 21.4844 18.5685 22.0246 17 22.0246ZM28.1562 7.66071C28.1057 8.20089 27.878 8.66741 27.4732 9.06027C27.119 9.45313 26.6637 9.64955 26.1071 9.64955C25.5506 9.64955 25.0699 9.45313 24.6652 9.06027C24.2604 8.66741 24.058 8.20089 24.058 7.66071C24.058 7.12054 24.2604 6.65402 24.6652 6.26116C25.0699 5.8683 25.5506 5.67188 26.1071 5.67188C26.6637 5.67188 27.1443 5.8683 27.5491 6.26116C27.9539 6.65402 28.1562 7.12054 28.1562 7.66071ZM33.9241 9.64955C33.8229 8.22545 33.5952 6.99777 33.2411 5.96652C32.7857 4.73884 32.0774 3.68304 31.1161 2.79911C30.2054 1.86607 29.1176 1.17857 27.8527 0.736607C26.7902 0.392857 25.5253 0.196429 24.058 0.147321C22.6414 0.0491071 20.2887 0 17 0C13.7113 0 11.3333 0.0491071 9.86607 0.147321C8.4494 0.196429 7.20982 0.392857 6.14732 0.736607C4.88244 1.17857 3.76935 1.86607 2.80804 2.79911C1.89732 3.68304 1.21429 4.73884 0.758929 5.96652C0.404762 6.99777 0.177083 8.22545 0.0758929 9.64955C0.0252976 11.0246 0 13.308 0 16.5C0 19.692 0.0252976 22 0.0758929 23.4241C0.177083 24.7991 0.404762 26.0022 0.758929 27.0335C1.21429 28.2612 1.89732 29.3415 2.80804 30.2746C3.76935 31.1585 4.88244 31.7969 6.14732 32.1897C7.20982 32.5826 8.4494 32.8036 9.86607 32.8527C11.3333 32.9509 13.7113 33 17 33C20.2887 33 22.6414 32.9509 24.058 32.8527C25.5253 32.8036 26.7902 32.6071 27.8527 32.2634C29.1176 31.8214 30.2054 31.1585 31.1161 30.2746C32.0774 29.3415 32.7857 28.2612 33.2411 27.0335C33.5952 26.0022 33.7976 24.7991 33.8482 23.4241C33.9494 22 34 19.692 34 16.5C34 13.308 33.9747 11.0246 33.9241 9.64955ZM30.2812 26.2232C29.6741 27.6964 28.5863 28.7522 27.0179 29.3906C26.2083 29.6853 24.8423 29.8817 22.9196 29.9799C21.8571 30.029 20.2887 30.0536 18.2143 30.0536H15.7857C13.7619 30.0536 12.1935 30.029 11.0804 29.9799C9.20833 29.8817 7.84226 29.6853 6.98214 29.3906C5.46429 28.8013 4.37649 27.7455 3.71875 26.2232C3.41518 25.3884 3.2128 24.0625 3.11161 22.2455C3.06101 21.1652 3.03571 19.6429 3.03571 17.6786V15.3214C3.03571 13.3571 3.06101 11.8348 3.11161 10.7545C3.2128 8.88839 3.41518 7.5625 3.71875 6.77679C4.32589 5.25446 5.41369 4.19866 6.98214 3.60938C7.84226 3.31473 9.20833 3.1183 11.0804 3.02009C12.1935 2.97098 13.7619 2.94643 15.7857 2.94643H18.2143C20.2381 2.94643 21.8065 2.97098 22.9196 3.02009C24.8423 3.1183 26.2083 3.31473 27.0179 3.60938C28.5863 4.19866 29.6741 5.25446 30.2812 6.77679C30.5848 7.5625 30.7872 8.88839 30.8884 10.7545C30.939 11.7857 30.9643 13.308 30.9643 15.3214V17.6786C30.9643 19.6429 30.939 21.1652 30.8884 22.2455C30.7872 24.0625 30.5848 25.3884 30.2812 26.2232Z" fill="white"/>
</svg>
