<svg width="15" height="14" viewBox="0 0 15 14" fill="none" xmlns="http://www.w3.org/2000/svg">
<path d="M15 0.65625V4.15625C15 4.33854 14.9392 4.49349 14.8177 4.62109C14.6962 4.7487 14.5486 4.8125 14.375 4.8125C14.2014 4.8125 14.0538 4.7487 13.9323 4.62109L12.9948 3.63672L6.66667 10.3086C6.54514 10.4362 6.39757 10.5 6.22396 10.5C6.05035 10.5 5.90278 10.4362 5.78125 10.3086L5.18229 9.67969C5.06076 9.55208 5 9.39714 5 9.21484C5 9.03255 5.06076 8.8776 5.18229 8.75L11.5365 2.10547L10.599 1.12109C10.4774 0.99349 10.4167 0.838542 10.4167 0.65625C10.4167 0.473958 10.4774 0.31901 10.599 0.191406C10.7205 0.0638021 10.8681 0 11.0417 0H14.375C14.5486 0 14.6962 0.0638021 14.8177 0.191406C14.9392 0.31901 15 0.473958 15 0.65625ZM10.599 7.41016L10.1823 7.84766C10.0608 7.97526 10 8.13021 10 8.3125V12.25H1.66667V3.5H8.54167C8.71528 3.5 8.86285 3.4362 8.98438 3.30859L9.40104 2.87109C9.52257 2.74349 9.58333 2.58854 9.58333 2.40625C9.58333 2.22396 9.52257 2.06901 9.40104 1.94141C9.27951 1.8138 9.13194 1.75 8.95833 1.75H1.25C0.902778 1.75 0.607639 1.8776 0.364583 2.13281C0.121528 2.38802 0 2.69792 0 3.0625V12.6875C0 13.0521 0.121528 13.362 0.364583 13.6172C0.607639 13.8724 0.902778 14 1.25 14H10.4167C10.7639 14 11.059 13.8724 11.3021 13.6172C11.5451 13.362 11.6667 13.0521 11.6667 12.6875V7.875C11.6667 7.67448 11.6059 7.51953 11.4844 7.41016C11.3628 7.28255 11.2153 7.21875 11.0417 7.21875C10.8681 7.20052 10.7205 7.26432 10.599 7.41016Z" fill="white"/>
</svg>
