<svg width="297" height="174" viewBox="0 0 297 174" fill="none" xmlns="http://www.w3.org/2000/svg">
<path d="M143.271 102.728L116.102 66.6005L142.831 33.1167H169.192L142.243 66.6005L169.486 102.728H143.271ZM94 102.728V0H115.809V102.728H94Z" fill="white"/>
<circle cx="188.272" cy="89.7828" r="13.4674" fill="#FF522A"/>
<path d="M2.48145 166V143.458H8.13721V153.496L15.791 143.458H22.1235L14.1313 153.883L24.1055 166H16.7739L8.13721 155.414V166H2.48145ZM28.7944 154.753C28.7944 156.762 29.396 158.416 30.5991 159.716C31.813 161.005 33.3545 161.649 35.2236 161.649C37.1035 161.649 38.645 161.005 39.8481 159.716C41.062 158.416 41.6689 156.762 41.6689 154.753C41.6689 152.733 41.062 151.074 39.8481 149.774C38.645 148.474 37.1035 147.824 35.2236 147.824C33.3545 147.824 31.813 148.474 30.5991 149.774C29.396 151.074 28.7944 152.733 28.7944 154.753ZM22.9937 154.753C22.9937 153.077 23.2891 151.53 23.8799 150.112C24.4707 148.684 25.3516 147.411 26.5225 146.293C27.6611 145.219 28.9502 144.419 30.3896 143.893C31.8398 143.366 33.4512 143.103 35.2236 143.103C37.0176 143.103 38.6396 143.372 40.0898 143.909C41.54 144.435 42.8345 145.23 43.9731 146.293C45.1333 147.411 46.0088 148.684 46.5996 150.112C47.2012 151.53 47.502 153.077 47.502 154.753C47.502 156.418 47.2012 157.965 46.5996 159.394C46.0088 160.812 45.1333 162.068 43.9731 163.164C42.8237 164.238 41.5186 165.049 40.0576 165.597C38.6074 166.134 36.9961 166.403 35.2236 166.403C33.4619 166.403 31.856 166.134 30.4058 165.597C28.9663 165.06 27.6719 164.249 26.5225 163.164C25.3623 162.068 24.4814 160.812 23.8799 159.394C23.2891 157.965 22.9937 156.418 22.9937 154.753ZM50.9824 166V143.458H56.7993V166H50.9824ZM66.9346 151.836V166H61.3594V143.458H66.3062L78.3911 156.896V143.458H83.9663V166H79.5513L66.9346 151.836ZM93.0864 154.753C93.0864 156.762 93.688 158.416 94.8911 159.716C96.105 161.005 97.6465 161.649 99.5156 161.649C101.396 161.649 102.937 161.005 104.14 159.716C105.354 158.416 105.961 156.762 105.961 154.753C105.961 152.733 105.354 151.074 104.14 149.774C102.937 148.474 101.396 147.824 99.5156 147.824C97.6465 147.824 96.105 148.474 94.8911 149.774C93.688 151.074 93.0864 152.733 93.0864 154.753ZM87.2856 154.753C87.2856 153.077 87.5811 151.53 88.1719 150.112C88.7627 148.684 89.6436 147.411 90.8145 146.293C91.9531 145.219 93.2422 144.419 94.6816 143.893C96.1318 143.366 97.7432 143.103 99.5156 143.103C101.31 143.103 102.932 143.372 104.382 143.909C105.832 144.435 107.126 145.23 108.265 146.293C109.425 147.411 110.301 148.684 110.892 150.112C111.493 151.53 111.794 153.077 111.794 154.753C111.794 156.418 111.493 157.965 110.892 159.394C110.301 160.812 109.425 162.068 108.265 163.164C107.116 164.238 105.811 165.049 104.35 165.597C102.899 166.134 101.288 166.403 99.5156 166.403C97.7539 166.403 96.1479 166.134 94.6978 165.597C93.2583 165.06 91.9639 164.249 90.8145 163.164C89.6543 162.068 88.7734 160.812 88.1719 159.394C87.5811 157.965 87.2856 156.418 87.2856 154.753ZM120.592 166V147.647H113.131V143.458H133.998V147.647H126.538V166H120.592ZM145.471 166V143.458H150.45L157.685 152.529L164.952 143.458H169.931V166H164.388V152.046L157.685 160.296L151.046 152.046V166H145.471ZM180.92 157.75H187.575L184.417 149.178L180.92 157.75ZM171.478 166L181.307 143.458H187.816L196.598 166H190.62L189.009 161.617H179.292L177.488 166H171.478ZM206.653 152.707C207.695 152.707 208.468 152.492 208.973 152.062C209.489 151.622 209.747 150.956 209.747 150.064C209.747 149.215 209.478 148.571 208.941 148.13C208.415 147.679 207.652 147.454 206.653 147.454H203.946V152.707H206.653ZM198.29 166V143.458H206.621C209.682 143.458 211.943 143.989 213.404 145.053C214.865 146.116 215.596 147.765 215.596 150C215.596 151.246 215.273 152.314 214.629 153.206C213.984 154.087 212.996 154.833 211.664 155.446C212.223 155.65 212.722 155.994 213.163 156.477C213.614 156.95 214.006 157.551 214.339 158.282L217.932 166H211.567L208.699 159.506C208.237 158.475 207.711 157.766 207.12 157.379C206.529 156.993 205.691 156.799 204.606 156.799C204.521 156.799 204.408 156.805 204.268 156.815C204.128 156.826 204.021 156.832 203.946 156.832V166H198.29ZM219.882 166V143.458H225.538V153.496L233.191 143.458H239.524L231.532 153.883L241.506 166H234.174L225.538 155.414V166H219.882ZM248.692 157.75H255.347L252.189 149.178L248.692 157.75ZM239.25 166L249.079 143.458H255.589L264.371 166H258.393L256.781 161.617H247.065L245.26 166H239.25ZM263.823 166L276.23 147.647H264.854V143.458H285.833L273.523 161.649H285.769V166H263.823ZM288.718 166V143.458H294.535V166H288.718Z" fill="white"/>
</svg>
