<svg width="31" height="26" viewBox="0 0 31 26" fill="none" xmlns="http://www.w3.org/2000/svg">
<path d="M30.9149 2.40463L26.2125 24.387C26.0281 25.1705 25.7054 25.6774 25.2444 25.9078C24.8295 26.0922 24.2993 26 23.6539 25.6313L16.5312 20.3777L13.0736 23.6958C12.8431 23.9262 12.6587 24.0875 12.5204 24.1797C12.2899 24.3179 11.9902 24.387 11.6214 24.387L12.1746 17.1287L25.3827 5.16972C25.5671 5.03146 25.6132 4.91625 25.521 4.82408C25.4749 4.68583 25.3366 4.63974 25.1061 4.68583C24.9217 4.68583 24.7142 4.75495 24.4837 4.89321L8.16381 15.1931L1.11028 12.9811C0.326552 12.7506 -0.0422597 12.405 0.00384179 11.9442C0.0499433 11.4833 0.534009 11.0686 1.45604 10.6999L28.9095 0.123441C29.601 -0.106982 30.1542 -0.0148129 30.5691 0.399949C30.984 0.768627 31.0993 1.43686 30.9149 2.40463Z" fill="white"/>
</svg>
